<svg width="20" height="20" viewBox="0 0 20 20" fill="none" xmlns="http://www.w3.org/2000/svg">
<path d="M14.1665 6.04163C13.8213 6.04163 13.5415 6.32145 13.5415 6.66663V13.3333C13.5415 13.6785 13.8213 13.9583 14.1665 13.9583C14.5117 13.9583 14.7915 13.6785 14.7915 13.3333V6.66663C14.7915 6.32145 14.5117 6.04163 14.1665 6.04163Z" fill="#5E5E5E"/>
<path d="M5.20817 9.99996C5.20817 10.3451 5.48799 10.625 5.83317 10.625H10.1576L8.72456 12.058C8.48048 12.3021 8.48048 12.6978 8.72456 12.9419C8.96864 13.186 9.36437 13.186 9.60845 12.9419L12.1084 10.4419C12.2257 10.3247 12.2915 10.1657 12.2915 9.99996C12.2915 9.8342 12.2257 9.67523 12.1084 9.55802L9.60845 7.05802C9.36437 6.81394 8.96864 6.81394 8.72456 7.05802C8.48048 7.3021 8.48048 7.69782 8.72456 7.9419L10.1576 9.37496H5.83317C5.48799 9.37496 5.20817 9.65478 5.20817 9.99996Z" fill="#5E5E5E"/>
<path fill-rule="evenodd" clip-rule="evenodd" d="M9.95202 1.04163C8.02836 1.04162 6.52083 1.04161 5.34459 1.19975C4.14064 1.36161 3.19063 1.6994 2.44495 2.44507C1.69928 3.19075 1.36149 4.14077 1.19963 5.34471C1.04148 6.52095 1.04149 8.02848 1.0415 9.95214V10.0478C1.04149 11.9714 1.04148 13.479 1.19963 14.6552C1.36149 15.8592 1.69928 16.8092 2.44495 17.5548C3.19063 18.3005 4.14064 18.6383 5.34459 18.8002C6.52083 18.9583 8.02836 18.9583 9.95203 18.9583H10.0476C11.9713 18.9583 13.4788 18.9583 14.6551 18.8002C15.859 18.6383 16.809 18.3005 17.5547 17.5548C18.3004 16.8092 18.6382 15.8592 18.8 14.6552C18.9582 13.479 18.9582 11.9714 18.9582 10.0478V9.95215C18.9582 8.02849 18.9582 6.52095 18.8 5.34471C18.6382 4.14077 18.3004 3.19075 17.5547 2.44507C16.809 1.6994 15.859 1.36161 14.6551 1.19975C13.4788 1.04161 11.9713 1.04162 10.0477 1.04163H9.95202ZM3.32883 3.32896C3.80355 2.85424 4.44582 2.58183 5.51115 2.4386C6.59447 2.29295 8.01798 2.29163 9.99984 2.29163C11.9817 2.29163 13.4052 2.29295 14.4885 2.4386C15.5539 2.58183 16.1961 2.85424 16.6708 3.32896C17.1456 3.80367 17.418 4.44594 17.5612 5.51127C17.7068 6.59459 17.7082 8.01811 17.7082 9.99996C17.7082 11.9818 17.7068 13.4053 17.5612 14.4886C17.418 15.554 17.1456 16.1962 16.6708 16.671C16.1961 17.1457 15.5539 17.4181 14.4885 17.5613C13.4052 17.707 11.9817 17.7083 9.99984 17.7083C8.01798 17.7083 6.59447 17.707 5.51115 17.5613C4.44582 17.4181 3.80355 17.1457 3.32883 16.671C2.85412 16.1962 2.58171 15.554 2.43848 14.4886C2.29283 13.4053 2.2915 11.9818 2.2915 9.99996C2.2915 8.01811 2.29283 6.59459 2.43848 5.51127C2.58171 4.44594 2.85412 3.80367 3.32883 3.32896Z" fill="#5E5E5E"/>
</svg>
