<svg width="99" height="32" viewBox="0 0 99 32" fill="none" xmlns="http://www.w3.org/2000/svg">
<path d="M16.4357 5.96094H21.1688L13.9604 18.6047V24.9131H9.49938V18.6047L2.29102 5.96094H7.02406L11.7299 14.5706L16.4357 5.96094Z" fill="#303030"/>
<path d="M26.914 25.2109C24.8467 25.2109 23.133 24.5702 21.7729 23.2886C20.4129 21.9891 19.7328 20.3014 19.7328 18.2257C19.7328 16.168 20.4038 14.4894 21.7457 13.1898C23.1058 11.8903 24.7832 11.2405 26.778 11.2405C28.7365 11.2405 30.3595 11.8542 31.6471 13.0815C32.9346 14.2909 33.5784 15.8883 33.5784 17.8737C33.5784 18.2347 33.5511 18.686 33.4967 19.2275H24.1123C24.2573 20.0758 24.5747 20.7166 25.0643 21.1498C25.5721 21.5829 26.1796 21.7995 26.8868 21.7995C27.4852 21.7995 28.0021 21.6551 28.4373 21.3664C28.8725 21.0595 29.1445 20.6534 29.2533 20.148L33.0343 21.1498C32.6716 22.4854 31.9281 23.4962 30.8038 24.1821C29.6976 24.868 28.401 25.2109 26.914 25.2109ZM24.2483 16.52H29.4165C29.3077 16.0327 29.0176 15.6085 28.5461 15.2475C28.0927 14.8685 27.5124 14.6789 26.8052 14.6789C25.5358 14.6789 24.6835 15.2926 24.2483 16.52Z" fill="#303030"/>
<path d="M48.041 21.4476C48.1861 21.4476 48.3946 21.4025 48.6666 21.3122V24.9673C48.2858 25.1117 47.7508 25.1839 47.0617 25.1839C45.3209 25.1839 44.1421 24.6965 43.5256 23.7218C42.5826 24.6965 41.2316 25.1839 39.4726 25.1839C38.0943 25.1839 36.97 24.8229 36.0996 24.1009C35.2473 23.3789 34.8211 22.3862 34.8211 21.1227C34.8211 19.9495 35.211 19.0018 35.9908 18.2799C36.7705 17.5579 37.8223 17.1337 39.1461 17.0074L43.0359 16.6554V16.3846C43.0359 15.8612 42.8546 15.4461 42.4919 15.1392C42.1292 14.8143 41.6668 14.6519 41.1046 14.6519C40.0891 14.6519 39.4816 15.1392 39.2821 16.1139L35.3923 15.5724C35.6281 14.0562 36.2991 12.9552 37.4052 12.2693C38.5296 11.5834 39.8715 11.2405 41.4311 11.2405C43.2807 11.2405 44.7315 11.6827 45.7833 12.5671C46.8532 13.4335 47.3882 14.6699 47.3882 16.2763V20.7166C47.3882 21.2039 47.6058 21.4476 48.041 21.4476ZM43.0359 19.6607V19.3628L40.479 19.6607C40.0438 19.7148 39.6992 19.8592 39.4454 20.0939C39.1915 20.3104 39.0645 20.5722 39.0645 20.879C39.0645 21.24 39.2187 21.5198 39.527 21.7183C39.8534 21.9169 40.2614 22.0071 40.751 21.9891C41.4039 21.953 41.9479 21.7364 42.3831 21.3393C42.8183 20.9422 43.0359 20.3826 43.0359 19.6607Z" fill="#303030"/>
<path d="M58.4538 11.2405C59.9771 11.2405 61.2193 11.6827 62.1804 12.5671C63.1597 13.4516 63.6493 14.688 63.6493 16.2763V24.9131H59.2971V17.603C59.2971 16.7908 59.0976 16.1861 58.6986 15.789C58.2997 15.3739 57.7556 15.1663 57.0665 15.1663C56.3774 15.1663 55.8243 15.3829 55.4073 15.8161C55.0083 16.2493 54.8088 16.881 54.8088 17.7113V24.9131H50.4566V5.96094H54.8088V12.6213C55.6974 11.7007 56.9124 11.2405 58.4538 11.2405Z" fill="#303030"/>
<path d="M74.9413 11.5112H79.2935V24.9131H74.9413V23.8031C74.0527 24.7236 72.8377 25.1839 71.2963 25.1839C69.8455 25.1839 68.6124 24.7236 67.5969 23.8031C66.5995 22.8645 66.1008 21.5559 66.1008 19.8773V11.5112H70.453V18.9296C70.453 19.7058 70.6525 20.2924 71.0515 20.6895C71.4504 21.0685 71.9944 21.2581 72.6835 21.2581C73.3726 21.2581 73.9167 21.0415 74.3156 20.6083C74.7327 20.1751 74.9413 19.5433 74.9413 18.713V11.5112Z" fill="#303030"/>
<path d="M90.0705 11.2405C91.9202 11.2405 93.4888 11.8993 94.7764 13.2169C96.0639 14.5165 96.7077 16.1861 96.7077 18.2257C96.7077 20.2292 96.073 21.8898 94.8036 23.2074C93.5342 24.525 91.9656 25.1839 90.0977 25.1839C88.5019 25.1839 87.1963 24.6965 86.1807 23.7218V24.9131H81.8285V5.96094H86.1807V12.6754C87.1781 11.7188 88.4747 11.2405 90.0705 11.2405ZM89.2001 21.4205C90.0343 21.4205 90.7415 21.1317 91.3218 20.5541C91.9021 19.9585 92.1922 19.1823 92.1922 18.2257C92.1922 17.251 91.9021 16.4749 91.3218 15.8973C90.7596 15.3017 90.0524 15.0038 89.2001 15.0038C88.3296 15.0038 87.6043 15.3017 87.024 15.8973C86.4618 16.4749 86.1807 17.251 86.1807 18.2257C86.1807 19.1823 86.4618 19.9585 87.024 20.5541C87.6043 21.1317 88.3296 21.4205 89.2001 21.4205Z" fill="#303030"/>
</svg>
